<?xml version="1.0" encoding="utf-8"?>
<!-- Generator: Adobe Illustrator 24.0.3, SVG Export Plug-In . SVG Version: 6.00 Build 0)  -->
<svg version="1.1" id="Calque_1" xmlns:amcharts="http://amcharts.com/ammap"
	 xmlns="http://www.w3.org/2000/svg" xmlns:xlink="http://www.w3.org/1999/xlink" x="0px" y="0px" viewBox="0 0 1000 1000"
	 style="enable-background:new 0 0 1000 1000;" xml:space="preserve">
<style type="text/css">
	.st0{fill:#3D6ABE;stroke:#1E357D;stroke-width:3;}
</style>
<path id="GES" class="st0" d="M853.8,254.6c-6.9-0.6-13.1-9.6-18.2-5.5c-4.1-5.4-10.8,2.6-12.8-3.3c-8.8-0.8-5-11.3-14.6-8.1
	c-1,9-15.8-0.1-15.1,3.4c-4.4,3.5,0.4-3.8-6.2-6.7c-10.2-0.9-4.7-2.7-7.5,4.7c-13.2-0.8-10.9-28.6-24.2-26c-18-9.5-16.1,10-33.8-8.3
	c-2.1,4.6-7.7-2-8.8,4.7c-6.8-4.8-7.1,6.8-9.9-7.4c-12-5.3-1.4-0.7-8.7-8.4c-6.9,3.9-7.6-6.7-14.2-7.2c-0.2-3.8-11.6,3.1-7.3-3.2
	c-3.6-5.3,4.8-9.6-4.6-11.7c13-29.1-7.4-15.5-5.4-3.2c-14.7,9.1-29.8-5.1-24,10.8c-5.4,10.8,3.1,6.6-3.7,14.3
	c-6.1,3.8-1.1,4.4-8.8,6.5c4.1,4.7,2.5,30.2-5.5,18.1c-4.8,6.4-15.8,3-14.8,12.8c2.3,1.1-1.3,6,2.5,3.9c7.8,9-3.8,0.7-5.4,7.3
	c4.2,5.2-1.2,2.9-0.9,6.9c13.7-1.1-7,9.3-5.4,18.5c-1.3,0.4-7.7,0-2.4,0.9c-6,6.4,4.9,1.5,0.6,13.8c9.1-3.4,2.4,7.2-2.5,8.9
	c-5.1,15.2,16.4,14.3,9.5,28.1c3.7-2.1,6.2,7.9,7.4,0.9c-0.9-0.8,11.8,15.5,6.8,13.9c4.3,6.3,10.9,7.9,20.2,3.2
	c-2.1-0.5,1.5-0.9,0.9-0.5c-0.2,5.8,4.9,2.6,5.1,0.6c19.4,1.4,10.5-11.7,26.6-2c-3.4,3.6,3.8,0.8,3,3.9c-4,7.1,2.7-2.9,4.2,5.8
	c5.5,4.6-1.6,5,1.5,14.6c5.2-4.1,3.8,2,6.1,1.2c2.8,5.4,6-4.7,5.1,1.5c1.3,0.6,3.5,3.8,4.7,2.4c-2.7,10.7,14.1-11.8,18.4-4.1
	c9.3-0.6,3.7-6.8,5.1-12c4.8,1,1.9-4.8,7.5-2.6c1.8-3.8,7.2-15.3,6.7-6.8c6.4-7,8.8-8.2,14-0.8c3.3,1.3,12.3-4.9,15,4.8
	c7.5-8.5,16.4,3.5,21.1,8.5c14.9,3.6,2.7,8.1,14.8,20.9c-2.2,2.9,4.1,1.3,3.1,2.6c-6.1,8.9,18.8,3.7,12.2,0.5c0.9-2.3,4.3,2,4.7-1.4
	C817.3,342.8,826.9,285,853.8,254.6z"/>
<path id="NAQ" class="st0" d="M337.5,494.4c2.1,3.6,6,10.9,1.7,14.9C337.3,501.1,319.2,484.6,337.5,494.4z M322.7,477.8
	c3.6-2.1,18.3,10.4,13.2,1.1c-1.7-2.3-11.1,0.1-6.6-3.4c-2.2-0.6-4.7,2.6-5.9,0.1C330.7,474.9,317.2,470.8,322.7,477.8z
	 M530.8,460.6c-0.4,2.5,0.9,3.4,2.9,3.7c-3.2,2.6,0,3.1,1.7,4.9c12,1,18.3,33.6,1.3,38c5.3,7.5,10.7,10.6,4,17.9
	c9.9,28.2-7.9,7.1-5.6,20.1c-11.9,5.8-5.2,16.9-14.2,21.4c7.5,10.5-13.1,4.2-16.4,10.4c-26.4-26.7-15.1,12.9-43,29.5
	c-3.5-1.6,1.5,2.6,0.5,2.9c-0.8,4,1.3,4.7,2.1,6c1.7,6.9-4.7,3-6.4,5.3c-1.6-7.6-5.6,4.8-2.1,4c4.9-0.2-0.2,9.4-2.4,9
	c6.4,5.4-2.1,2.9-3.5,3.1c-7.7,16.8-7.9,1-13.4,6.2c-8.5,2.3-16.2,5.6-23.3,4.4c-6,2.5-0.5,6.9-3.7,7.4c-6.2-1.9-0.4-5.1-4.9-6
	c-1,5.1-15,1.5-8.4,8.6c-2.2,0.3,1,4.3-0.5,4.2c-2.8-1-0.8,4.5-0.6,4.7c2.8,1.1-3,2.5-2,3.5c1.8,4.7-3.4,3.9-1.3,6.2
	c3.9,1.7-1.2,3.1,5.4,1.9c0.5,2,4.5-0.2,4.2,1.2c-0.4,4,2.8,0.9,2.9,5.2c-1.5,1.6,2.3,2.5,0.9,2.7c-4.1,0.1-1.5,3.2-1.7,4.1
	c-0.6,2.2,3.8-3.3,3-1.7c0,1.8-0.3,5.5,0.2,5.3c4.4,5.2-6,0.5-1.2,7.7c-3.1,4.1-2.3,7.6-4.9,7c-0.8-2.3-1.6,4.2-2.4,3.3
	c-4.3,0.5-1.3,5.6-1.9,5.7c-10.4,2.6-3.3,24.8-17.7,17.1c-3.4,8.2-11.6-9.9-13.7-10.7c-12.1,2.5-22.5-5.5-29.4-8.2
	c4.5-5.8-2.1-1.6-2.3-0.8c0.8,6.1-3.6,3.8-5.5,2.5c-1.5-7.2,11.6-16.2-5.4-17.8c-2.6,0.7-0.8,5.1-3.6,2.4c-1.1-8.3-7.4,1-9.1-8.1
	c33.6-8.9,16.3-86.6,35.4-96.2c14.8,1.9,0.3-8.8-2.1-9.6c-10.8,35.8,2.8-81,6.1-57c16.5,5.6,16.4,34.2,25.6,37.4
	c-13.1-63.8-50.8-42.2-28.4-65.3c5.1-10.1,0.3-22.9-5.8-22.3c1.4-8.1,12.6-22.8,16.1-12.9c10.5-4.2,6.1,3.5,15.1-1.1
	c0-2.3,7.6-2.4,4.8-5.1c-3.8-3.1-6.4,2.4-3.8-3.9c2.9-1.3-3.1-6.2-0.3-6.6c1.7-0.7,1.6-0.3,1.1-1.6c-2.1-2.8,1.1-5.4-1.1-6.5
	c-1.4-0.7-1.8-0.4-1-1.5c2.5-2.1-3-2.4-0.9-3.7c1.8-1.1-3.9-4.4-2.8-5.9c0.9-4.4,0.4-3.8-3.1-5.7c-14-18,8.1-6.6,15.3-19.4
	c-0.5,3.7,22.9-6.5,17.2,1.1c11-0.2,8.5-14,20.7-1.7c-3.4,6.4,4.8-1.4,3.8,3.9c5.1-2.9-1.3,12.7,5.3,7.5
	c12.4,4.4,14.7-13.4,18.5,3.7c3.2,5.3,13.3,12.9,10.9,17.8c-1.9,9.8,8.3,9.4,13.1,13.6c-0.5,8.5,6.2,3.4,1.9,9.7
	c9.7,3.7,6.1-6.2,13,2.8c3.5-1.9,5.6-10.1,7.1-3.6c3.3-2.9,3.7-1.4,4.6,0.3c2.6-3.3,4.1-1.1,5.4-0.2
	C504.1,453.2,520.9,463.1,530.8,460.6z"/>
<path id="ARA" class="st0" d="M794.5,537.8c-3-5.1-9.8-7.6-6.3-16.1c-8.8-2.3-11.7-6-9.8-15.4c14.6,1.7,14.6-17.8,2.9-16.8
	c2.1-25.4-17.8-49.7-34.7-17.7c9.4,6.1-10.5,10.7-15.3,11.7c2.4-9.9,7.9-6.9,11.6-18.8c-10.6-11-17.7,22.7-28.8,1.8
	c-11.9,16.9-12.5-8.1-22.2-9c-26.1-22.1-18.9,40.9-30.3,15.7c4.2-3.2-3.2-5.6-3.4-0.5c-3.6,0.6-1.3-4.5-4.3-0.4
	c-11.8-8-5.6,15.2-18.1,6c-3.6,4.3-5.1-2.7-9.7,2c-18.9-5.7,13.4-23.5-12.2-27.5c-10.3-5.4-4.2-30.3-17.4-10.6
	c-3.3,0.4-0.6-6.3-5.9-4.8c-3,5.4-3.3-0.9-6-0.3c-7.8,8.4-16.6-18.2-23.1-0.7c-7.4-2.7-10.4,2.7-13.2,4.3c-3.6,1.3,1.1,2-2,5
	c9.6,9.6-13,3.2-13.4,10.9c-11.4,8.6,22.5,15.9,12.7,43.8c-18.1,11.5-0.4,7.3-2.1,21.1c-6.3,0.7,2,8.9-1.5,17.5
	c6.3,8.8-11.8-4.5-6.7,2.6c-1,6.1-7,8.6-9.5,12.8c0.5,5.5,3.6,2.8-0.8,6.5c0.5,5.8-3.1,2.8-4.3,5.9c6.4,9.3-6.3,2.1-0.2,10.9
	c-2.9,2.8,5.1,8.9,3.9,10.3c-3.2,5.2,0.3,13.8,3,11.5c9.8-7.2,15.5,7.5,21.3-16.9c10.4-12.4,6.1-0.5,13.6-1.1c0.2,7,4.3,4.9,3.6,7.4
	c-1.3,1.3,1.7,10.8,3.1,9c2.8-7.2,3.1-11.3,6.4-16.4c2.2-8.1,3.6,7.2,8.9-5.9c1,4,6.2-5.2,5.7-1.3c5.5,3.6,2,14.6,10.8,9.5
	c15.9-11.7,22.5,39.5,31.3,39.9c13.1,7.6,5.9-9.7,16.1,2.3c0.9-10,7.5,0.4,11.5,0.9c-1.1-9.6,10.6-1.6,9.3,3.3
	c6.2-5.7,14.6-3.1,18.9-6.5c-3.5,13.1,9.2,1.4,15.9,14.8c6.2,1.6,5.1-5.2,8-5.4c2.1,3.9,6.2,3.9,2.5,1c-0.4-1.7,2.3-1.1,2-1.7
	c-0.1-1,0.2-5.7-0.1-5.2c-2.8,0.7-2-1.7-2.7-2.6c-3,0,0.4-2.4-0.4-2.5c-7.2,0.5-10.4-1.4-11.2-7.1c8.3,0.4,0.4-1.2,2.1-5.5
	c14.6,5.4,6.9-4.8,10.1-11.6c4.6,1.3,8.4,0,9.9-3.1c-5.7-6.8,7.4-2.8,8.2-7c-3.7-2,1.7-3.5,2.3-3.9c4.4,3.3,3.7-4.6,12.5-1.4
	c5.2-3.7,6.3,5.9,5.8-6.7c-4.2-2.4,1-5.4-5.8-4.4c-4-1-1.8-5.2-0.3-5.8c-0.7-10.8,9.2,4.2,13.2,1.2c-2.6-4.5,17.2-8.9,20-5.4
	c4.9-2.4,5.7-7.8,12.7-7c4.3-2.3,1.3-6.6,1.6-8.5C798.5,543.1,798.9,539,794.5,537.8z"/>
<path id="BFC" class="st0" d="M744.9,339.2c1.1-1.1-2.8-2-3-2.4c2.3-12.9-15.6,8.7-10.4-0.2c-4.3-2-5.1,12-10.8,8.9
	c-9.3,9,4.6,15.2-15.2,14.2c-6.6,1.6-10.5,16.2-16.6,0.3c-7.3,7-4.7-5.8-11.4-0.6c-0.2-3.3-0.1-7-2.8-6.5c8.1-1.7-1.5-16.2-3.1-10.4
	c-3.7-1.8,4.4-5.5-4.1-5.4c5.2-5-18.1-8.3-12.6-0.4c-0.4,0-13.3,0.5-13.1,0.6c-2.2,7.5-4.6-1.3-6.5-0.5c1.3,2.6-11.6,2.9-16.4,3
	c1.3-3.7-6.3-15.1-9.8-19.8c-0.7,7.1-4.9-3.4-7.4-1c6.4-8.8-6-13.9-9.2-16.8c-33.7,5.2-12,0.2-25.7,18.7c12.6,8,10.8,15.7,3.6,23.7
	c6.7,12.9-18,4.1-4.5,15.7c-0.2,2.7,2.7,1.2,0.5,4.5c5.3,11.2-10.4-2.3-0.4,15.5c-4.4,15.9,14.8,32.8,6.1,51.4
	c12.1,16.2,10.5,0.5,15.9,7.9c6.4-3.9,5.1-1.9,7.8,2.8c2.7-0.5,1.8-3.2,4.6-2.6c1.2-0.6-1.7-3.6,0.5-3.1c6.2-9.9,7.2,19.3,15.5,16
	c0.4,4.4,8.2,1.3,8.2,5.6c1.4,12.9-12.3,15.4-1,20.3c0.8,5.2,5.9-1.7,7.4,0.1c3.1,3,4.7-0.6,6.8,0.7c2.3-1.6-0.7,2.5,1.4,1.9
	c9.6-2.8,5.2-7.4,8.6-10.9c6.1,0.9,3.1,3.6,8.4,0.9c2.3,5,3.5-4.4,6.3-1c2.9,2.2-2,2.5,0.2,3.5c3.8,0.7,0.3,9.3,5,5
	c3.1-7.9,7.9-29.7,11.6-25.2c8.6,4.5,8.5-5.5,13.8,4.2c6.6,0.5,1.8,2.9,3.4,3.8c4.1,2.1,2.8,2.9,4.9,6.2c0,1.4-0.1,1.9,0.3,0.6
	c1.6-5.5,0.4,1.6,2.2,0.1c0.8,10.1,7.9-0.2,10.6-1.3c9.6,17.2,28.9-10.6,26.3-19.9c9.7-10.3,19.7-12.6,17.9-24.8
	c-4.2-8.3,17.5-6.3,13.3-14c4.3-3.6,12.6-10.3,13.8-14.3c-1.9-4.4,2.3-1.6,2.7-4.1c-0.1-2.8,3.5-1,2.8-3.2c0.6-5.2-11,1.6-9-1.6
	c0.7-3.5,2.6-2.5,2.8-4.2c0.1-1.6-0.1-1.1,1-1.7c4.7-1-0.1-3.9,2.3-4.8c11.4,3,8.1-8.5,0.6-8c4.2-12.6,0.2-10.2-8.3-16
	c-1.6-4.1-9.4-6.6-12.2-9.8c-2.5-5.4-3.9,0.9-6,1.6C755.5,344.5,761.6,332.7,744.9,339.2z"/>
<path id="BRE" class="st0" d="M229.1,383.6c4.8,1.1,16.1,11.8,4.3,6.9C229.3,392.9,228,386.5,229.1,383.6z M230.4,262.9
	c-0.2,8,9.4-5.4,6.8,3.1c1.5-0.1,1.8-0.6,0.8,0.9c10.6-0.3-3.6,3.3,8.6,5.3c-3.1,3.1,4.6,7,6.1,8.8c-1.6,4.2,2.5,6.2,5.6,7.6
	c-2.5,4.1,0.1-0.1,2.2,5.6c-0.6-7.1,28.6-23.6,18.4-10.9c5.1,1.2,3.2-4.6,6.9,2.7c1.1-3.6,0.9-0.6,1.7,0.9c1.9-0.5-0.2-5.2,3-2
	c-3.8-6.6,6-2.2,7,1.5c-2.2,0.9,0.8,2.3,1.3,3.2c-4.4,6.7,4.1,0,0.2,0.7c1.9-1.7-3.6-5.7,1.2-2.8c-0.2-1.4-1.6-2.3-2.9-2.5
	c-0.2-3.3-4.3-3,1-6c-1.9-1.6,2-0.5,2.5-0.8c14.2-8.1-9,12.9,19.9,4c8.7,28.4,11.8,2,27.4,10.4c2.1,65.6-2.1,50.9-51.7,68.5
	c-8.6,4.8-1.9,17.1-15.4,12.6c0.8,6.1-14.5,5.6-10.6,1.5c6-0.2-0.7-2.1-1.2-2.5c-1.4,0.1-6.3,2.2-6,1.2c-1-3.1-2.8,1.7-3.5,1
	c-2.4-1.7-5.7,1-7.3,0.7c-3-4.7-18.3-12.7-16.3-1.6c-5.8-24.4-28.6-11.3-45.4-31.7c-3.9,1.9,1.3,4.9-5.3,4.3
	c-8.1-6.1-2.9,7.8-17.6,3.8c7.5-21.9-40.6-17.9,0.9-24.9c11.6,3.2-2.5-15.2-7.9-9.9c-2.5,7.3-3.3,2.8-3.6-0.8
	c3.7-2.7-2.9-0.9-3.2-1.8c-1.4-3.2,3.1-0.8,2.9-2.4c-0.6-2.5,1.2-5.2,1.9-4c-2.1,4,0.3,3.8,2.2,4.3c19.5-2.2,9.4,2.5,9.4-6.3
	c-8.4,6.5-1.2,0-7.2,2.5c10.6-13.5-23.3,9.1-17.1-4.7c-3.3-21.3,21-22.3,31-21.9c-3.4-4.2,9.4-2.1,10.2-5.2c3.1-2.1,1.5,6.5,5.1,3.5
	c5.8,1.4,2.3-6,7.7-2.3c2.6-1.2,4,1.2,5.7,1.1c3.6-2.3-0.2,3.1,1.1,2.1c1.8-2,1.2-2,2.8-0.6c2.6-0.3,0.2-4.9,2.6-6.4
	c-2.3-0.7-1.9-3.9-1.4-5c1.4-0.4,1.7,2.5,2.5,0c-0.5-1.9,0.9-0.9,1.9-2.4c0.9,2.9,0.8-1,1.3,0.1c0.6,2.3,2.7,0.5,2.5,1.4
	C215.5,270.9,230.8,264.1,230.4,262.9z"/>
<path id="CVL" class="st0" d="M488.3,256.9c6.9,9.8,4,11.4,5.5,22.8c9.8,3.1,8.1,21.8,17.9,17.1c-0.7,4.6,1.9,4.2,3.2,7.7
	c-5.5,10.2,7.7,4.4,10.5,4.2c4.5-7.4,1.4,4.7,8-1.7c4.8,4.4,15.9,9.4,6.3,17c13.7,2,29.1-10.3,33.1,4.2c6.8,3.8,4.1,11.6-2.3,13.8
	c5.8,15.7-17.1,7-3.2,21.1c-3.1,2.2,1.6,5.6,1.1,6c-18.9,7.8,25.5,56.7-7.1,67.3c-26.4-0.5,0.7,16.8-26.4,17
	c-7.8,15.7-28.7,0.4-39.9,9.3c-2.4-4.7-2.3,2.5-6.1-1.7c-8.2,10.3-4.1,0.6-11,2.1c-11.1,5.4-3.4-5.3-7.1-3.3
	c-3.1-2.3-0.5-7.2-5.8-8.4c-13.3-1.4-11.9-33.9-27.7-37c4.4,5.9-8.1,4.5-11.7,5c-5.4,1.2-0.5-8.7-5.4-10.2
	c-20.2-5.5-5.2-21-1.9-35.6c-0.7-3.4-2.6-1.3,1.3-7.8c16.6,7.4,2.2-2.7,8.5-1.8c3.2,2.8,1.8-0.7,5.3-1.7c9.9-1.6,1.4-5.9,11.2-10.3
	c1.4-3.5,4-2.7,3.8-10.3c1.6-1.2,2.2,3.4,2,0.2c4.4-6-3.8-12.1,2-14.5c0.3-1.5-2.8-1.3-1-1.4c2-0.5-0.2-3.2,2.7-2.7
	c7.1-0.2-6.9-4.1-3.4-5.5c2.5-2-2.6-3.7-0.8-5.9c-7.6-8.6,21.9-7.1,2.9-26.4c-6.4-9.1,7.9-10.2,12.7-12.9c3.3,1.1,0.2-4.9,4.5-1.9
	C482.4,276.9,482,262.3,488.3,256.9z"/>
<path id="COR" class="st0" d="M812.2,786c10.8-8.3,5.9-7.9-6.4-10.7c20.6-22.3-5.8-6.9-1.9-14.2c-2.1-2.5-1.4-2.3,1.4-2.5
	c2.3-3.7-0.8-3,5.4-5.9c-2.1-4.5-12.3-6.5-8.9-9.5c-1.1-7-4.3-3.2,6-6.4c-0.8-1.9-2.9-3.2-4.9-2.9c3.1-7.9-3.6,2.4-3.3-5.1
	c5.1,1.5,1.4-4.2,6-3c1.5-3.3-2.4-7.3,3.6-8.1c-0.2-1-1.4-3.8,0.3-4.4c2.1,6.1,7.6-6.7,12.1-3.6c9.3-0.1,3.5-8.6,15-7.5
	c9.2,12.3,6.1-15.9,6.4-19.2c22.5,15.4,5.2,98.9-3.6,107.5c0.9,8-6.3,19.3-10.6,3.6C822.2,796.9,814.9,789.4,812.2,786z"/>
<path id="IDF" class="st0" d="M499.3,232.8c4.7,12.4,18.9-2.4,25.5,5.7c5.3-3,1.8,1,3.4,1c8.2-5.7,16.2,8.1,21.8,3.6
	c8,9.4,25.3-5,28.4,2.1c-0.8,9.8,26.3,21.3,13.9,22.7c5.2,0.8-2.1,2-0.4,4.2c8.1,2.4,1.1,5.8,3,8.8c-1.8,3.8,6-2.4,3.7,1.6
	c5,2.8-2.9,0.3-0.9,3.5c-13.5,14.8,5.2,17.2-25.5,19.4c0.9,10.9-7.2,20.3-16.4,15.6c3,4.1-15.1,2.3-16,2.7
	c12.7-11.5-15.4-20.9-16.1-14.1c-18.7,4.5-1.7-8.5-19.5-14.2c-3.2-13.3-15.3-17.8-11.2-30.1C476.9,236.1,494.2,256.9,499.3,232.8z"
	/>
<path id="OCC" class="st0" d="M660,626.9c18.2,33.9-0.3,15.8-1.2,44.2c-17.9-4.7-1.5,6.1-16.1,11.3c-20.2,16.6,1.3-21-42.7,16.1
	c-26.5,3.9-36.2,44.8-23.3,60.5c6.9,10.8-4.1,2-8.5,2.9c-1.2-0.7-21.5,4-16.1,9.2c-14.8-0.3-21.4-12.8-35.8-0.5
	c-2.2-8.8-23-10.2-12.1-17.2c-6.9-1.7-13.1-9.1-19.5-1.6c1.5-7.2-36-20-42.5-17.5c3.8,12.4-7.5,12.9-16.4,8.5c-5.1,6.9-3.7-0.5-10-1
	c-15.2,11.7-37.7-16.5-19.4-23.4c-2.3-2.1-0.3-5.6,1.9-5.7c1.1-0.9,1-5.7,2.2-2.8c4.4-0.2-0.4-5,3.1-3.9c1.7-2.5,1.8-4.6,0.2-6.2
	c0.9-3.8,6.8-0.4,2.3-5.3c0.2-9,0.6-3-3.4-2.9c6.4-15.2-8.5-9.6-11.7-17.4c9.8-9.4-5.6-25.4,15.7-23.4c-3.8,3.9,7.1,6.3,2.7-0.6
	c5.8-2.8,7.5-5.2,13.3-2.2c6-1.4,14.8-10.4,19.8-2.6c7.2-4.8,4.9-8.9,12.6-8.6c0.2-3.7-2-1.7-2.2-3.5c4.6-0.1,6.4-9.1,0.8-9.6
	c1-3.7,2.2-8.6,3.9-2.7c11.3-3.6,5.5-4,2.2-15c8-0.9,11.3-13.2,18.2-15c0.4-4.2-3.9-3.6,2.7-5.4c-1.7-4.9,6.7-3.2,2.6-7.6
	c0.5-17.1,11.7-9.4,21.3-1c18.8-14.1,17.9,12.6,20.2,22.1c4.7,4-0.8-3.2,8.4-2.5c8,8,14.8-8.8,15.2-13.8c13.5-15.7,5.8,2.1,11-2
	c5.6-1.7,1.7,8,6.2,6.4c1.8,21.5,5.9,1.1,9.9-5.7c1.1-7.2,3.9,3.4,7.2-1.7c-0.8-1.9,1.1-5.7,2.7-3c7.6-8.7,7.2,5.5,11,9.2
	c26.2-16.9,21.4,37.5,42.1,41.3c4.6-8.9,5.4-5.9,9.9-1.4C649.3,615.9,655.3,625.8,660,626.9z"/>
<path id="HDF" class="st0" d="M635.3,171.9c-1.9-2.9-6.3-6.5,1.9-9.5c-3-6.3-8.5-9.1-0.5-15.6c-10-13.6-28.4-2.7-30.7-9.9
	c2.9-23.6-26.2,2.1-21.7-28.4c-4.8,0.1-5.4-12.3-9.4-6.1c-8.8-1.4-8.1,9.7-16.3,4c-4.5-12.6-7.1-4.2-10.3-10.6
	c8.3-35.1-37.9-10.7-55.6-1.9c4.4,12.2-6.3,19.1,2.9,30.8c-4.8-7.2-5.5,12.9-0.6,12.5c-16.1,2.9,12.8,18.8-2,15.3
	c-5.9-6.7-6.4,9.1-11.5,10.4c32.6,14.3,11.8,41.5,20.9,46.6c4.6,4.3-6,1.4,0.8,18.4c2.8-0.5,0.9,3.8,0.7,3.7
	c-3.7-4.8-5.7,0.4-2.8,2.1c-2.6,1.5,0.9,3.6,1.4,3.7c8.2,2.4,17.9-4.7,22.7,0.9c4.8-2.8,0.6,5,7.7-1.3c3.1,4.7,9.6,1.3,9.8,6.4
	c2.6,1.6,2.6-2.4,3.1-1.2c3.2,7.7,1.1-3,7.8,4.2c7.4,1,1.3-1.7,6.4-2c2.5,3.3,6.7,0.1,8.6,0.5c1.2,3,1.3-1,2.4-0.3
	c4.8,1.4,0.7-4.2,7-1.1c4.8,7.2-2.5,5.3,5.9,11.4c0.1,4,2.4,0.8,3,2c0.9,5.1,2.8,0.6,3.3,1.7c-0.1,4.7,2.3,4.3,4.3,5.5
	c1.5,4.7,3.5-5.3,4.9-4.7c2.9,0.4,1-1.9,2.5-2.3c2.5,0-0.6-1.6,0.9-1.8c11.6-11.8-7.6-1.8,1.8-10.1c-7.4-8.5,12.7-4.1,4.3-8.3
	c-4.7-3.3-4.5-13.9,4.2-14.3c5.8,2.4,4-8.8,9.9-1.7c6.6,4,2-4.1,4.2-5.5c2.7-0.4-0.9-2-0.3-2.9c-1.3-3.5,3.7-3.9,1.3-5.7
	c-2.3,0,1.7-2.5,0.3-2.9c-6-7.1,0.9-3.7,2.5-5.3C635.9,191.6,642,177.4,635.3,171.9z"/>
<path id="NOR" class="st0" d="M503.1,212.8c-1.7-65.9-24.3-48.5-85.5-20.4c-26,38.4,35.8,9.7-23.4,36.2
	c-15.9-4.9-42.8-13.5-53.4-4.5c6.9-7-10.9-17.1-3.9-21c7.9-7-8.4-15.1-11.8-6.9c-8.7,3.4-18.6-2.9-24.7-4.8
	c-1.1,6.4,11.1,9.3,3,16.1c2.7,1.4,3.7,11.5,4.3,13.5c6.2-0.9,7.5,13.7,10.6,12.9c4.1,17.7-2.7,42.1,11.1,46.3
	c8.4,2.9-8.3,2.6-8.7,2.1c0,21.5,41.7,4.1,50.3,15.5c6.6-7.6,16.7-2,22.1-7.6c-3.3-4.7,5.4-0.7,5.2,0.9c-4.5,4.6,3.7,6.5,5.3,6.4
	c0.8,4.2-2.1,7.9,2.8,4.4c3.3,4.6,7.8-6.4,9.5-4.6c8.4-7.7,12.1,4.4,12.1,10.8c7.9,2.6,3.4,1.5,7.8,5.9c8.8,0.9,5.9-4.7,11,5
	c7.3,1.4,3-9.3,0.9-9.4c11.2-8.4,16.5-15.5,3.4-25.9c-0.6-12.4,15.6-5.8,16.5-14.2c14.1,9.2,21.1-11.4,19.5-18.6
	c-3.5-5.4,1.3-2,1.7-5.9c10.4,7.7,7.3-22.6,15.3-13.6C505.7,224.5,495.8,217.2,503.1,212.8z"/>
<path id="PDL" class="st0" d="M283.2,412.3c2,3.7,5.6,5.7,5.9,10.6C287.9,418.5,275.7,414,283.2,412.3z M348,292.5
	c7.9,2.2,11.7-1.8,16.9,5.9c2.5-0.7,5.1-7.1,5.9-0.7c5.4-7.4,25.7-3,21.2-8.6c0.9-3.7,8.8,1.5,4.9,3.1c1.2,8.6,8.5,0.2,6.7,11.2
	c2.9-2.8,2.8-0.3,6-0.3c19.8-24.5,13.3,10.6,31.7,11.8c-0.8-6.6,5,1.6,5.4,3.7c5.1-0.1,5.3,0.9,9.7,4c-10.2,2.4,1,29.1-26.8,42.4
	c-6.4-5.7,0.1,3.6-2.2,3.7c-9.6-19.1-19.7,55-28.9,37.4c-6.2-1.7-19.5,5.6-17.3,1.8c-7.5-0.4-2.6,4.5-7.6,6.7
	c-11.3-0.4-20.3,2-11.3,6.2c3.4,12.5,14.6,24.3,9.2,41.3c13.7-2.2-8,13-8.8,4.4c-37.7,8.4-47.8-7.1-73.2-38.4
	c1.7-15.6,19.8-18-5.4-24.7c17.9-16.5-22-4.1-14.6-16.4c-6.5-4,4.3-4.9,3.1-8.9c1-0.9,1.5-2.6,1.8-1.6c5.8,5.6,6.1-7.5,9.9-2
	c11.3,0.9,3.6-11.7,12.6-14C350.2,347.9,350,344.4,348,292.5z"/>
<path id="PAC" class="st0" d="M697.8,706.4c5.7-23.3-12.3,1.2-17.6-11.5c-1-2.9-5.4-7.1-7.7-3.1c-5.4-3.1,1.3,1.5-2.4,0.3
	c-1.5,1.1,0.9,0.8,1,1.4c-2.1,1.9,2.6,2.8,3.6,0.6c-2.8,7.2-12.4,0.4-18.3,1.5c2.8-15.7-38.7,1.1-6.6-17.2
	c-2.9-5.1,2.1-11.1,9.1-7.2c-4.1-16,16.7-19.5,8.6-28.7c-7.3-0.4-2.3-7.6-4.3-11.3c-10.7-7.4,6.3-13.6,6.2-1
	c6.1-5.6,14.8-3.3,18.9-6.5c-3.5,13.1,9,1.2,15.9,14.7c11.7,0.5,0.6-10.1,12.1-2.2c1.1-1.9-1.9-1.2-1.9-1.9c7-5-2.7-7.8-1-12.2
	c-6.5,2.8-15.8-8.3-8-6.7c2.4-1.8-0.8-1.5-0.8-2.2c-2.9-7.5,6.6-0.7,8.2-1.8c0.1-2.4,2.5-2.1,2.5-2.3c-9.4-9.6,6.2-9.9,9.1-14.3
	c-5.6-6.8,7.3-2.8,8.2-7c-3.6-1.9,1.7-3.5,2.3-3.9c2.3,3.5,5.3-2.5,6.4-2.3c15.7,4.5,15.2-9.2,3.7-11.9c0.3-7.1,7.1-11.9,8.9-4
	c9.7,3.6,3.8-0.9,7.9-3c7.5-2,6.4,1.7,9,7c5.1-0.1,2.6,1.8,4.6,4.7c-2.3,12.2,15,2,16.9,21c-11.3-2.7-2.4,7.4-10.7,10
	c-3.5,3.4,3.4,8,3.7,9.3c-4.9-0.1-3.1,5.9-1.1,6.2c8.3,26.6,61.7,3.5,35,31c-1.6,8.3-5.5,0.5-2.1,11.9c-4.2,2.7-9.5,4.7-10.6,7.7
	c-1.9-4.3,0,1-2.8-1.4c-2.4-0.2-3.2,3.2-4,3.3c-6-3.1-2.9,10.2-4.8,8.2c-1.1-4.4-3.3,1.1-4.5,0.6c-4.6-4.2-5.7,8.2-10.1,9.4
	c-8.2-1.9-8.3,8.8-14.8,10.5c9.8,0.6,4-1.6,5.3,5.5c-6,6.7-1.9-3.7-10.1,3.6c-6-0.3-7.4,1.5-7.2,4.7c-5.3-4.5-12.8-2.1-11.1,3.9
	c3,0.4-3.6,1-3.4,0.3c-0.6-1.3,2.4-0.4,1.9-1.2c-0.5-4.5-10.3-2.1-11.5-5.7c-4.4,1.1,0.4,1.6,1,3c1.4,2.9-2-1.7-4.4,2.8
	c-6.3-0.9,0.5-7-8.8-7.4c-0.1-5-4.8-2.1-5.1-1.2C708.7,704.9,703,708.5,697.8,706.4z"/>
<path id="GP" class="st0" d="M325,818l-0.4,0.5l-4.7,2.6l-1.5,1.1l-0.6,1l-2.4,2.9l-1.3,2.1l0.1,1.6l0.7,1.4l0.8,5.7l1.2,0.3
	l1.3,0.5l1.1,0.7l0.6,0.7l0.2,1.1l0,1.5l-0.2,1.3l-0.4,0.6l-2.8,0.7l-1.4,1.8l-2.5,8.3v0l0,0l-0.6,2.3l-0.1,2.1l0.6,2l1.6,1.9l2,1.6
	l2.6,1.5l3,1.2l3.3,0.6l2.7-0.4l5.1-2.3l26.8-6.1l2.4,0.6l1.2,0.6l4.3,1l1.3,0l1.7-1.4l-0.9-0.9l-2.9-0.8l-8.2-5.8l-1.6-0.8
	l-0.9-0.6l-3.3-2.8l-1.5-0.9l-1.7-0.3l-1.5,0.1l-1.5-0.1l-1.6-0.8l-1.1,1.2l-2.2-1.2l-1.9-1.4l-1.7-1.7l-1.5-2.2l-1.2-2.5l-0.2-1.6
	l0.4-4.2l-0.7-4.2l-1.8-3.3l-2.6-2.6l-4.9-3.6L325,818z M311.4,854.1l-1-1l-1.9,0.3l-1.5,1.2l-0.7,1.7l-1.6-1.6l-0.5-0.6l-0.6,0.5
	l0,0.2l-0.2-0.2l-1.3-0.5l2.2-1l-2.6-3.2l-5.2-2.8l-5.6-2l-3.8-0.7l-1.5-0.7l-1-1.4l-1.4-0.9l-2.8,0.7l-2.2,1.9l-2.5,4.5l-1.5,1.3
	l0.5,2.1l-0.6,4.9l0.1,2.7l0.8,1.7l1.2,1.7l0.7,1.9l-0.7,2.4l2.3,5.7l0.1,12.5l1.9,5.6l1.3,0.9l0.6,1.5l0.5,1.8l1.1,1.9l1.8,1.6
	l1.6,1l1.3,1.2l1.1,2.1l-1.1,1.1l0.9,2.3l0.2,0.9l7.8-3.3l7-4.2l4.8-5.8l1.3-8.3l-1-8.6l-1.9-5.5l-0.3-7.3l1-1.6l2.7-0.6l1-0.3
	l-1.1-3.1l0.9-3.5L311.4,854.1z M306.1,843.8l1.5-0.4L307,843l-0.5-0.3l-0.7,0.3l-0.7,1l0.4,0.7L306.1,843.8z M396.9,844.4l-3.9-1.2
	l-3.7,1.5l-6,5.1l-2,1.1l3.5,0.5l4.4-1.8L396.9,844.4z M379.2,870.6l0,0.4l0.3-0.3L379.2,870.6z M377.5,872.3l1.1-0.2l0.5-0.8
	l-0.8-0.1l-1.5,0.1l-0.9-0.1l1.2,1L377.5,872.3z M365.8,910l-0.5-2.1l-1.1-1.3l-1.1-0.9l-1.8-4.5l-3-2.6l-3.7-0.8l-3.3,1.9l-2.7,3.1
	l-1.1,1.7l-0.4,2.3l-1.5,2.1l-0.6,1.2l0.5,0.5l0.6,0.4l0.5,1.1l0.4,1.3l0.2,1l2,4.1l4.6,0.7l5.2-1.3l3.8-1.9l1.7-1.4l1-1.2l0.5-1.4
	L365.8,910z M309.2,918.4l-0.2-0.4l-0.9-0.4l-0.9,0.4l-0.8,1.6l-0.8,0.5l-0.8,0.7l0.5,0.7l1.6-0.5l1.8-1.2l0.8-0.8l-0.2-0.4
	L309.2,918.4z M305.5,918.1l-0.8-0.1l0.3,0.5l0.8,0.1L305.5,918.1z M300.3,919.6l-1.5,0.8l-0.6,2l1.6,1l1.3-0.8l0.4-1.2l-0.8-1.2
	L300.3,919.6z M306.2,925l-0.1-0.6l-0.7-0.6l0.1,0.6L306.2,925z M302.9,924.4l0.3,0.3l0.4,0l-0.2-0.3L302.9,924.4z"/>
<path id="MQ" class="st0" d="M513.7,920.7l3.1-0.3l2.5-1.1l2.3-3.1l2.7-6.6l2.7-1.2v-1.5l-1.4-2.8l-0.7-3.6l-1.2-3.1l-2.9-1.4l0.7-1
	l0.4-0.7l0.5-0.6l1.4-0.7l-1.8-2.5l-0.8-2.7l0.1-2.9l0.8-3l-2.9,1.7l0.2-1.9l-0.1-2.1l-0.8-1.7l-1.6-0.7l-2.1-0.6l-0.8-1.3l-0.3-1.6
	l-0.6-1.2l-4.5-2.6l-1.7-1.8l-1.4-3.5l1.2-0.5l0.7-0.5l0.9-0.4l1.7-0.2l-7.4-3.3l-1.9,2.6l-1.9-0.7l-0.4-2l2.7-1.4l-1.6-1.7l6-3.3
	l-1.2-1.3l-1.4-0.8l-1.6-0.1l-1.9,0.9l-0.5-5.1l0.6-4.3l1.7-1.2l2.7,4.4l4.7-4.8l-0.5-1.5l0.6-0.9l1.4-0.9l1.5-1.3l-5.3,0l-5.2,1.4
	l-4.5,2.2l-3.2,2.6l-3.9-7.9l-2.6-0.7l-1.1-1.7l-0.5-2l-0.9-1.7l-3.6-2.4l-8.7-3.9l-9.7-6.3l-7.5-2.4l-7.7,0.1l-8.8,5l-2,1.8
	l-1.5,2.5l-0.6,3.1l0.6,3.2l1.6,2.8l6.3,6.7l1.7,2.3l1.3,2.6l0.5,2.8l-0.4,1.5l-0.7,1.5l-0.4,1.5l0.8,1.6l1,1.1l0.7,1.1l0.5,1.2
	l0.2,1.4l1.7,4.1l4,3.8l7.9,5.4l0.8,1l1.4,2.7l1,1l1.3,0.3l4.6-0.3l2.4,0.2l2.4-0.1l2.7-0.5l3.3-1.1l0.5,3.9l1.6,3.2l1.7,2.4
	l0.7,1.4l-1.6,3.3l-3.2,1.2l-3.4-1l-2.3-3.5l-1.9,1.8l-5.8,2.8l-6,6.4l2,1.2l1,0.7l0.3,0.9l-0.1,1.7l4.9,6.9l1.9,1.1l3.3-0.5
	l5.5-2.2l3.5-0.5l12.9,1.7l6.1-1.1l1.5,0.3l-0.2,2.3l3.5,0.2l3.5-2.2l3-1.2l2.1,3.2l-0.2,3.5l-2.1,1.2l-2.5,0.8l-1.3,2.3l1,3.3
	L513.7,920.7z"/>
<path id="GY" class="st0" d="M654.1,859.6l-1.3,0.1l-0.1-0.1l0-0.2l-0.1-0.1l-0.1,0l-0.2-0.2l-0.1-0.2v-0.1l0,0l0-0.1l-0.1,0
	l-0.1-0.1l-0.2-0.4l-0.1-0.1l-0.1-0.1l-0.1-0.2l-0.1-0.1l-0.2-0.5l-0.1-0.4l0-0.3l0.1-0.3l0.1,0l0-0.1l0.1,0l0.1-0.3l0.1-0.1
	l0.2-0.1l0.1,0l0-0.1l0-0.2l-0.1-0.1l0,0l-0.1,0l-0.1,0.2l-0.2,0l-0.1-0.1l-0.1,0l-0.3-0.3l-0.1,0l-0.2-0.3l-0.1,0l0-0.1l-0.1,0
	l0-0.2l0.1-0.1l0-0.1l0.1-0.1l0-0.1l0.1-0.1l-0.2-0.1l-0.1-0.1l-0.1-0.1l-0.2-0.3l-0.1-0.2l0-0.1l-0.1-0.2l0-0.2l0-0.4l0-0.1l0,0
	l0-0.1l-0.1-0.2v-0.1l0,0l-0.1-0.5l-0.1-0.3l0.1-0.3l0-0.1l-0.1,0l0-0.1l-0.1-0.1l0-0.1l0.1,0.1l0,0l-0.2-0.4l-0.1-0.1l0,0.1l0,0
	l-0.3-0.4l0-0.1l-0.1-0.1h-0.1l-0.2-0.1l0-0.1l-0.2-0.1l-0.1-0.2l-0.2-0.1l-0.1-0.1l-0.1,0l-0.2-0.2l-0.1,0l0-0.1l-0.2,0l0,0l-0.1,0
	h-0.1l-0.2-0.1l-0.2,0l-0.3,0l0,0l-0.3,0l-0.1,0.2l-0.6,0.4l-0.9-0.1l-0.5-0.3l-0.3-0.2l0,0l0.1-0.1l-0.1,0v0l-0.1-0.1l0-0.3l0,0
	l0-0.1l-0.1,0l0-0.1l0,0l0,0.1l-0.1-0.2l-0.3-0.1l-0.1-0.1l0.1,0l0.1,0l-0.1-0.2l-0.1,0l0,0l0,0l0-0.1l-0.1,0l0,0h0l0-0.1l-0.3-0.1
	h-0.1l-0.2-0.1l0-0.1l-0.2,0l-0.1-0.1l-0.1,0l0-0.1l-0.2-0.1l-0.4-0.3l0,0l0.1,0.1l0.1,0.1l-0.1,0l-0.1-0.1l0-0.1l-0.1,0l0-0.1h0
	l-0.1-0.1l0-0.1l-0.1-0.1l0,0l-0.1,0v0.1l0,0l-0.1-0.1l0,0l0-0.1l-0.1,0l-0.1-0.1l-0.3-0.1l0,0.1l0.1,0.1l0,0.1l0.1,0.1l0,0.1
	l-0.1-0.2l-0.2-0.1l-0.1-0.1l-0.1-0.1v-0.2l-0.1-0.2l-0.1,0l0-0.1l-0.1,0l0-0.1l0,0l-0.2,0l-0.1-0.2h0v0.1l-0.1,0l-0.1-0.1l-0.1,0
	l0-0.2l-0.1-0.1l-0.1-0.2l-0.2-0.1l-0.1-0.1l-0.4-0.1l-0.6-0.6l-0.1-0.2l-0.2-0.1l-0.2-0.2l0-0.2l0,0l0.1,0v-0.1L637,842l-0.2-0.2
	l-0.2-0.1l0-0.1l0-0.1l-0.1-0.1l0,0l-0.1,0.1l-0.1,0l-0.2-0.1l0-0.1l-0.2,0l-0.3,0.2l0,0l-0.1,0l-0.1,0l0,0l0,0.1l-0.1,0h-0.2l0,0.1
	l-0.1,0l0,0.1l0.1,0.1l0,0.1l-0.1,0.2l-0.1,0.1l-0.4,0l-0.3-0.1l-0.4-0.4h0l0-0.1l-0.1-0.2l-0.1-0.3l-0.2-0.3l-0.1,0l0,0l0-0.1
	l-0.1,0l-0.1-0.1l0-0.1l-0.1-0.2l-0.1,0l-0.2-0.1l0-0.2l-0.2,0l0-0.1l-0.1,0l0-0.1l0,0l-0.1,0l-0.1-0.1l-0.3-0.2l0-0.1l-0.1,0
	l-0.2-0.1v-0.1l0,0l-0.1-0.1l-0.1,0l0,0l0,0l0,0l-0.2-0.2l-0.1,0.1l-0.3-0.2l0-0.1l-0.1,0l-0.2-0.2l-0.2-0.1l-0.2-0.2l0-0.1
	l-0.1-0.1l-0.3-0.1l-0.1,0l-0.3-0.1l-0.1-0.2l-0.3-0.2l-0.1-0.1l-0.1,0l-0.5-0.6l-0.3-0.2l-0.1,0l-0.1-0.1l-0.2-0.1l-0.2-0.2l-0.1,0
	l0,0l0.1-0.1l0-0.1l0.1,0l0.1,0l0-0.1l-0.1-0.1l-0.1,0l-0.1-0.1l-0.5-0.5l-0.2-0.4l-0.2,0l-0.1-0.1l-0.1,0l-0.2-0.2l-0.3-0.1
	l-0.3-0.2l-0.1-0.1l-0.1-0.1l-0.2-0.1l-0.3-0.4l-0.1,0l-0.1,0l-0.1-0.1l0-0.2l-0.1-0.3l-0.1,0l-0.1-0.1l-0.1,0l-0.1-0.1l-0.1-0.1
	l0-0.2l-0.2-0.2l-0.1,0l0,0l0-0.1l-0.1-0.1l0-0.1l-0.2-0.1l0,0.2l0,0l0-0.2l-0.4-0.3l-0.2,0l-0.1-0.1l-0.1,0l-0.1,0l0,0l-0.2,0l0,0
	l0.1,0l0.1-0.1l0-0.1l0-0.1l-0.2-0.2l-0.2-0.2l-0.1,0l0,0l0-0.1l-0.1-0.1l-0.2-0.2l-0.2-0.1l0-0.1l-0.1,0.1l0,0.1l0.1,0.1l0,0
	l-0.3-0.3l-0.2,0l-0.2-0.2l-0.1-0.1l0,0l0-0.1l0,0l-0.3-0.2l-0.1-0.1l-0.1,0l-0.1-0.1l-0.3-0.2l-0.7-0.3l-0.1-0.1l-0.5-0.2l-0.5-0.1
	l-0.5-0.3l-0.3,0l-0.6,0.1l-0.5-0.2l-0.1,0l-0.1-0.1l-0.1-0.1l-0.4-0.2l-0.2-0.1l-0.1-0.1l-0.1,0l-0.1,0l0-0.1l-0.1-0.1l-0.1-0.2
	l-0.1,0l0-0.1h-0.1l-0.1-0.1h-0.1l-0.1-0.1l-0.1,0l0-0.1l-0.2,0l-0.1-0.1l-0.1,0l-0.1-0.1l0-0.1l-0.4-0.1l-0.4-0.2l-0.1,0l-0.3-0.1
	l-0.4-0.2l-0.2,0l-0.4-0.2l-0.5-0.2l0,0l0,0.1l-0.2,0l-0.1,0.1l-0.1,0l0,0l-0.1,0l-0.1,0.1l0.2,0.1l0,0.1l-0.5,0.2l-0.5-0.1
	l-0.4-0.2l-0.7-0.1l-0.3-0.1l-0.1-0.1l-0.2-0.1l-0.1,0l-0.4-0.2l-0.2,0l0,0l-0.2,0l-0.1,0l0,0l-0.9-0.4l-0.2,0l-0.3-0.2l-0.3-0.2
	l-0.1-0.1l-0.1,0l0-0.1l-0.1,0l-0.1-0.1h-0.1l-0.2-0.2l-0.1,0l-0.1-0.1l-0.2-0.1l-0.5-0.2l-0.1,0l-1-0.5l-0.2,0l-0.1-0.1l-0.2,0
	l-0.6-0.2l-0.4-0.3l-0.5-0.2l-0.3-0.2l-0.5-0.3l-0.2-0.2l-0.3-0.1l-0.2-0.1l-0.7-0.3l-0.4-0.1l-0.3,0l-0.3-0.1l-0.3,0.1l-1.1,0
	l-0.6-0.3l-0.5-0.1l-0.3,0.1l-0.1,0.1l-0.1,0.4l-0.3,0.3l-0.1,0.1l0,0.3l0,0.1l-0.1,0.1l0,0l-0.1,0l-0.3,0.3l-0.2,0.3l-0.1,0.4
	l-0.1,0.6l0,0.1l-0.2,0.1l0,1.3l-0.1,0.7l-0.3,0.5l-0.3,0.4l-1,1l-0.5,0.7l-0.8,0.9l-0.2,0.3l-0.1,0.7l-0.1,0.2l-0.3,0.2l-0.6,0.2
	l-0.1,0.1l-0.6,0.7l-0.3,0.2l-0.5,0.2l-1,0.7l-0.7,0.7l-0.6,1.1l-0.6,1.1l-0.1,0.3l-0.2,0.1l-0.1,0.2l-0.1,0.5l-0.3,0.4l-0.4,0.3
	l-0.3,0.5l-0.2,0.7l-0.3,0.7l-0.1,0.5l-0.1,0.4l0,0.5l0,0.4l-0.1,0.3l-0.3,0.3l-0.2,0.4l-0.2,0.2l0,0.2l0.2,0.8l0,0.5l0,0.9l0.1,0.7
	l0,0.3l-0.1,0.8l0.2,0.3l0.2,0.1l0.3,0l0.1,0l0.4,0.3l0,0.1l-0.1,0.3l0,0.6l0.1,0.3l-0.1,0.3l-0.1,0.5l0.4,0.5l0.1,0.2l0,0.5l0,0.4
	l-0.1,0.5l-0.1,0.3l-0.5,0.4l-0.2,0.3l0.4,1.4v0.3l-0.1,0.2l0,0.6l0.1,0.3l0.3,0.6l0,0.4l0.1,0.2l0.3,0.1l0.3,0.7l0,0.3l0,0.2l0,0.7
	l0.2,0.6l0,0.6l0,0.4l-0.2,0.6l0,0.4l0.1,0.2l0.5,0.2l0.4,0.3l0.4,0.1l0.3,0.2l0.1,0.1l-0.1,0.3l-0.4,0.5l-0.1,0.7l-0.1,0.3
	l-0.4,0.5l0,0.3l0.1,0.2l0.2,0.2l0.3,0.1l0.3,0.1l0.3,0.3l0.4,0.7l0.1,0.7h0l0.2,0.4l0.2,0.3l0.3,0.3l0.3,0.2l0.2,0.3l0.1,0.2
	l0.2,0.4l0.4,0.3l0.8,0.2l0.2,0.2l0,0.2l-0.2,0.3l0,0.2l0.1,0.2l0.3,0.1l1.2,0l0.2,0l0.1,0.1l0.6,0.9l0.3,0.6l0.3,0.6l0,0.7l0.3,0.5
	l0.4,0.3l0.1,0.4l0.2,0.2l0.3,0l0.4-0.4l0.2,0.1l0.3,0.3l0.1,0.5l0.2,0.3l0,0.2l-0.1,0.3l-0.2,0.2l-0.1,0.2l-0.1,0.6L593,879
	l-0.2,0.9l0,0.5l-0.1,0.3l-0.2,0.4l-0.2,0.3l-0.4,0.4l-0.1,0.2l0,0.5l-0.3,1l-0.1,0.3l-0.3,0.3l-0.2,0.1l-0.4,0.1l-0.4,0.3l-0.3,0.4
	l-0.4,0.4l-0.1,0.3l-0.2,0.4l0,0.1l-0.1,0.1l-0.1,0.3l-0.1,0.1l-0.4,0l-0.1,0l0,0.1l0.1,0.2L588,887l-0.1,0.6l-0.1,0.1l-0.1,0.1
	l0,0.1l0.1,0l0.1,0.1l-0.2,0.1l-0.1,0.1l0,0.1l0.1,0.1l0.1,0l0.1-0.2l0.2,0l0.2,0.1l0.1,0.3l0.1,0.4l-0.1,0.2l0.1,0.3l0,0.1
	l-0.4,0.3l0,0.2l0.3,0.4l0.1,0.5l0.1,0.4l-0.1,0.1l-0.2,0.1l-0.1,0.2l0.1,0.3l0.3,0.2l0.2,0l0.1,0.1l0,0.1l-0.2,0l-0.1,0.1l0.1,0.2
	l-0.1,0.2l0,0.2l-0.1,0.2l-0.1,0.1l-0.1,0l-0.1,0.1l0.1,0.2l0,0.2l-0.2,0.6l0,0.2l0,0.2l0.1,0.1l0.2,0l0.1,0.1v0.1l-0.1,0.2l0,0.2
	l-0.1,0.1l-0.2,0.1l-0.2,0l-0.1,0.1l0,0.1l0,0.2l-0.1,0.2l0.1,0.2l0,0.1l-0.2,0.2l-0.1,0.2l0,0.3l-0.2,0.3l-0.1,0l-0.1,0l0,0.1
	l0,0.1l-0.2,0.1l-0.1,0.1l-0.1,0.1l-0.2,0.4l-0.2,0.1l-0.1,0.2l-0.1,0.1l-0.1,0.2l-0.2,0.7l-0.2,0.3l-0.1,0.1l-0.4,0.3l-0.5,0.6
	l0,0.1l0.1,0.3l-0.1,0.2l-0.1,0.3l-0.2,0.6l-0.1,0.2l-0.3,0.2l0,0.1l0,0.4l-0.3,0.9l-0.1,0.2l-0.3,0.3l-0.2,0.1l-0.1,0.1l0,0.2
	l-0.3,0.2l-0.5,0.7l-0.2,0.1l-0.3-0.1l-0.1,0.1l-0.1,0.3l0,0.9l0,0.5l0.3,0.4l0.1,0.2l0,0.1l-0.4,0.4l-0.2,0.1H581l-0.1,0.1
	l-0.1,0.1l-0.3,0.2l-0.8,0.1l-0.1,0.1l0.2,0.1l0,0.1l0,0.1l-0.5,0l-0.1,0.2l0,0.1l0.2,0.2l0.4,0.1l0.1,0.1l0.3,0.1l0.2,0.1l0.6,0.8
	l0.3,0.1l0.8,0.1l0.4,0.1l1-0.1l0.3,0.3l0,0.3l0,0.1l0.3,0.2l0.2,0.4l0.2,0.1l0.5,0.1l0.7,0.1l0.4,0l1.8-0.6l0.3,0l0.2,0l0.2,0.2
	l0.2,0.5l0.3,0.3l0.5,0l0.3,0.1l0.3,0.2l0.1,0l0.2-0.3l0.2-0.4l0.1-0.4l0.2-0.6l0.2-0.2l0.2-0.2l0.2-0.1h0.2l0.3,0.2l0.1,0l0.1,0
	l0.3-0.2l0.3-0.3l0.5-0.2l0.3-0.1l0.4-0.2l0.3-0.4l0.1-0.2l0-0.6l0-0.1l0.2-0.2l0.2-0.1l0.2,0l0.2,0.3l0.1,0l0.9-0.7l0.5-0.1l0.8,0
	l0.3-0.1l0.1-0.1l0-0.2l0.1-0.4l0.3-0.4l0.2-0.1l0.3,0l0.3,0.2l0.1,0.1l0.2,0.6l0.1,0.2l0.7,0.5l0.5,0.3l0.2,0.1l0.4,0.1l1-0.1l1,0
	l0.6-0.2l0.3-0.1l0.6-0.1l0.6-0.2l0.6-0.3l0.4-0.1l0.3,0l0.3,0.1l0.4,0.3l0.6,0.9l0.4,0.2l0.2,0.1l0.6,0l0.4-0.1l0.7-0.2l0.1-0.3
	l0.4,0l0.5,0.3l0.5,0.1l0.3,0.2l0.1,0.1l0.4,0.8l0.2,0.2l0.3,0.1l0.3,0.1l0.4,0l0.1-0.1l0.2,0.1l0.2-0.1l0.3,0l0.2,0l0.5-0.1
	l0.2,0.1l0.3,0l0.2,0.1l0.4,0.6l0.3,0.2l0.1,0.1l0.5,0.1l0.3,0.1l0.2,0l0.4,0.2l0.7-0.2l0.3,0l0.2-0.1l0.2-0.1l-0.1-0.1l0.1-0.1
	l0.3,0.1l0.2-0.1l0.2,0.1l0.1,0l0.1-0.1l0.1-0.4l0.2-0.3l0.1-0.1l0-0.3l0.2-0.1l0.1-0.1l0.1-0.4l0.4-0.2l0.1-0.2l-0.1-0.3l0.1-0.1
	l0.4,0l0-0.1l0.1-0.1l0.2,0l0.1-0.1l0.2,0l0.3-0.1l0.2-0.1l0.2,0l0.3-0.3l0.2-0.1l0.1-0.1l0.1,0l0.7-0.3l0.1,0l0.1-0.1l0.2-0.1
	l0.1-0.2l0.1-0.1l0.4-0.2l0.3-0.1l0.4-0.1l0.3-0.3l0.1-0.3l0-0.2l0.1-0.2l0.3-0.4l0-0.1l0.2-0.4l0.1,0l0.1,0.1l0.1-0.1l0.4-0.1
	l0.1-0.2l0-0.1l-0.1,0l-0.1-0.1l0-0.1l0.3-0.2l0.3,0l0.2-0.2l0.1-0.2l0.2-0.3l0.7-0.6l0.1-0.2l0-0.2l-0.1,0l0-0.1l0-0.4l0.2-0.2
	l0.2,0.1l0.1-0.2l0.2-0.3l0.1-0.2l-0.1-0.2l-0.2-0.2l-0.2-0.1l-0.1-0.1l0-0.1l0.1-0.1l0-0.1l-0.3-0.2l0-0.1l0-0.2l0.1-0.1l0.2-0.1
	l0.3,0l0.1-0.1l0.2-0.7l0.3-0.5l0.2-0.5l0.3-0.3l0.3-0.5l-0.1-0.2l0.2-0.2l0-0.1l-0.1-0.2l0.9-1.8l0.5-0.9l0.2-0.2l0.2,0l0.1-0.1
	l0.3,0l0.1,0l0.3-0.2l0.1-0.2l-0.1-0.2l-0.1,0l-0.1,0l-0.1,0l0-0.3l0-0.3l0.4-0.3l0.3-1l0.2-0.4l0-0.3l0.2-0.2l0.1-0.2l0.4-0.7
	l0.1-0.3l0-0.4l-0.3-0.2l-0.1-0.1l0-0.1l0.1-0.3l-0.1-0.1l-0.2-0.1l0-0.2l0.1,0l0.2,0l0.1-0.1l-0.2-0.1l0.2-0.2l0.2-0.4l0.3-0.2
	l0.2-0.1l0.3,0l0-0.6l0.5-0.9l0.7-0.4l0.1,0l0.3,0.2h0.1l0.2-0.1l0.8-1l0.1-0.1l0.2-0.3l0-0.3l0.1-0.2l0.5-0.6l0.2-0.5l1.1-1.8
	l0.3-0.4l0.4-0.4l0.1-0.2l0.3-0.8l0.1-0.2l0.2-0.1l0.1-0.1l0-0.1l0.8-1.6l0.4-0.3l0.5-0.6l0.1-0.5l0.1-0.8l0.4-0.9l0.3-0.3l0.2-0.1
	l0.4-0.1l0.4-0.2l0.1-0.1l0-0.3l-0.2-0.7l0-0.2l0.2-0.1l0.5-0.4l0.5-0.2l0.9-1l0.1,0l0.3-0.3l0.2-0.3l0.5-0.5l0.2-0.4l0.1-0.7l0-0.5
	l0.1-0.2l0.2-0.4l0.5-0.7l0.6-0.4l0.4-0.3l0.4-0.2l0.6-0.1l0.2-0.1l0.2-0.2l0.3-0.8l0.1-0.8l0.2-0.4l0.4-0.8l0.1-0.4l0-0.5l0,0
	L654.1,859.6z"/>
<path id="RE" class="st0" d="M728.2,827.9l-1.6,0.8l-2.5-0.4l-2.8,0.8l-1,0.3l-6.1,4.5l-1,1.5l-2,0.9l-1,0.2l-0.3-0.4l0.1,0.4
	l0.3,0.1l-0.1,0.9l-1.6-0.3l0.9-0.3l0-0.6l-1.6,0.4l-2.6-0.9l-0.8,0.3l-0.3,1.6l0.6,0l0-0.5l0.5,0.1l-0.4,1.1l-0.3-0.3l-0.3,1
	l0.1-1.1l0.2,0l-0.5-0.1l-0.1,1.9l-0.5,0.8l0.8,3.2l-0.7,3.5l-3.1,2.6l-1.2,0.5l-1.6-0.3l-2.6,2.8l0,0.9l1,1.8l-0.4,3.8l1.4,2
	l3.2,2.7l-0.2,0.6l2.5,2.7l0.1,2.8l1.4,0.6l0.7,1.1l0.1,3.4l-1,3l0.7,0.6l1.1,3.5l2.5,1.5l1.3,1.2l0.1,0.7l1.4,1l0.6,1.6l-0.3,0.6
	l1,1.2l3.6,0.5l3.4,1.1l1.3,0.8l3.1,3.8l1.4,0.7l2.7,0.3l0.8,0.4l0.4,1.3l1.5,0.7l1.5,0.3l-0.7-0.3l0.6,0l0.2-0.5l-0.2,1l0.4-0.1
	l0.4,0.6l2.5-0.2l3.1,1.6l2.1,0.4l1.8,1.6l0.5-0.5l2.4,0.8l2.1-0.7l0.4,0.7l1.4,0.5l1.5,1.2l3.8-0.7l1.4,1.1l1.8-1.1l1.7,0.2
	l1.3-1.4l4,0.3l2.7-1.1l3.2-0.2l0.8-0.7l2.7,0.4l3.1-2.3l1.4-2.1l0.3-0.9l-0.8-3.3l0.6-3.3l-0.7-1.4l-0.3-2.8l1-5l0.8-2l1.5-1.6
	l0.1-2.6l1.5-0.4l-0.6-2.7l0.3-0.8l-1-1.2l-0.3-1.3l-2.3-0.9l-1.9-1.8l-2-0.3l-1.5-2.6l-1.3-1l-0.9-1.7l-2.6-2.9l-0.9-1.7l0.2-1.4
	l-2.1-2.7l-1.4-0.6l-0.7-1.5l-0.3-5.9l-0.5-2.1l-1.9-3l-2.5-2.8l-2-1.3l-1.7-0.7l-2.8-0.3l-4-2.2l-1.4,0.3l-3.3-0.9l-1.1,0.6
	l-1.3-0.1l-5.1-1.8l-2.2,0.5l-2.3-0.1L728.2,827.9z"/>
</svg>
